<?xml version="1.0" encoding="UTF-8"?>
<svg id="svg8" width="158.75mm" height="105.83334mm" version="1.1" viewBox="0 0 158.75 105.83334" xmlns="http://www.w3.org/2000/svg" xmlns:cc="http://creativecommons.org/ns#" xmlns:dc="http://purl.org/dc/elements/1.1/" xmlns:rdf="http://www.w3.org/1999/02/22-rdf-syntax-ns#">
 <metadata id="metadata5">
  <rdf:RDF>
   <cc:Work rdf:about="">
    <dc:format>image/svg+xml</dc:format>
    <dc:type rdf:resource="http://purl.org/dc/dcmitype/StillImage"/>
   </cc:Work>
  </rdf:RDF>
 </metadata>
 <g id="g10720" transform="matrix(.85061819 0 0 .92592589 .22505939 0)">
  <rect id="rect1998" x="-.21470793" y="5e-7" width="186.53123" height="114.3" fill="#006633" opacity=".999" stroke-width="0"/>
  <g fill="#ffffff" stroke="#ffffff" stroke-width=".264583px">
   <path id="path2000" d="m38.373752 51.785999v-14.21874l-10.149559 9.26089s-1.961108 2.824325-0.51117 5.49034c1.499875 2.757836 5.894266 5.350427 10.660729-0.53249z"/>
   <path id="path2000-6" d="m55.400511 36.633968-14.218426 0.09455 9.328178 10.087752s2.837303 1.942283 5.493617 0.474649c2.7478-1.518181 5.311114-5.929716-0.603369-10.656952z"/>
   <path id="path2000-6-5" d="m50.066441 47.594472-10.347338-9.75219-0.221878 13.737846s0.710269 3.364264 3.644864 4.137644c3.035663 0.800015 7.936334-0.619718 6.924352-8.1233z"/>
   <path id="path2000-6-8" d="m22.341938 36.603374 14.218426 0.09455-9.328178 10.087752s-2.837303 1.942283-5.493617 0.474649c-2.7478-1.518181-5.311114-5.929716 0.603369-10.656951z"/>
   <path id="path2000-63" d="m38.467296 20.308328v14.21874l-10.149559-9.26089s-1.961109-2.824325-0.51117-5.49034c1.499875-2.757836 5.894266-5.350427 10.660729 0.53249z"/>
   <path id="path2000-6-3" d="m55.494055 35.460359-14.218426-0.09455 9.328177-10.087752s2.837304-1.942283 5.493617-0.474649c2.747801 1.518181 5.311114 5.929716-0.603368 10.656951z"/>
   <path id="path2000-6-5-4" d="m50.159985 24.499855-10.347339 9.75219-0.221878-13.737846s0.71027-3.364264 3.644865-4.137644c3.035663-0.800015 7.936333 0.619718 6.924352 8.1233z"/>
   <path id="path2000-6-8-2" d="m22.435482 35.490953 14.218426-0.09455-9.328179-10.087752s-2.837303-1.942283-5.493617-0.474649c-2.7478 1.518181-5.311114 5.929716 0.603369 10.656952z"/>
  </g>
  <g>
   <path id="path2166" d="m-0.21458195 93.902263 186.481942-88.5844134v15.6686754l-186.4816777 78.97029z" fill="#0066cc" stroke-opacity="0"/>
   <path id="path2188" d="m-0.16574189 99.988854 186.4331019-79.002329 0.04677 15.177569-186.4791026 68.778596z" fill="#ffffff" stroke="#ffffff" stroke-width=".1"/>
   <path id="path2190" d="m-0.16910668 105.04604 186.4832367-68.881946 2.6e-4 15.059654-186.4812634 57.848852z" fill="#cc6633" stroke="#cc6633" stroke-width=".1"/>
  </g>
 </g>
</svg>